# xmcd CD database file generated by Grip 3.2.0
# 
# Track frame offsets:
#       150
#       12935
#       26773
#       39475
#       51578
#       85030
#       98648
#       112988
#       126120
#       138743
#       151455
#       165645
#       179063
#       191945
# 
# Disc length: 2722 seconds
# 
# Revision: 2
# Processed by: cddbd v1.5.2PL0 Copyright (c) Steve Scherf et al.
# Submitted via: Grip 3.2.0
# 
DISCID=c10aa00e
DTITLE=The original BluesHits - 2
DYEAR=1900
DGENRE=Blues
TTITLE0=I'm Your Hoochie Coochie Man - Muddy Waters
TTITLE1=Smokestack Lightnin' - Howlin' Wolf
TTITLE2=Keep it to yourself "Sonny Boy Williamson"
TTITLE3=We're Gonna Make It - Little Milton
TTITLE4=Stone Crazy -- Buddy Guy
TTITLE5=Lovin`you "Lowell Fulson"
TTITLE6=Sad hours "Little Walter"
TTITLE7=Moanin' At Midnight - Howlin' Wolf
TTITLE8=Something's Got A Hold On Me/Etta James
TTITLE9=Baby, I love you "Little Milton"
TTITLE10=Help Me - Sonny Boy Williamson
TTITLE11=All I could do was cry "Etta James"
TTITLE12=Forty days and forty nights - Muddy Waters
TTITLE13=Juke (Little Walter)
EXTD=
EXTT0=
EXTT1=
EXTT2=
EXTT3=
EXTT4=
EXTT5=
EXTT6=
EXTT7=
EXTT8=
EXTT9=
EXTT10=
EXTT11=
EXTT12=
EXTT13=
PLAYORDER=
